<?xml version="1.0" encoding="utf-8"?>
<!-- Generator: Adobe Illustrator 16.0.0, SVG Export Plug-In . SVG Version: 6.00 Build 0)  -->
<!DOCTYPE svg PUBLIC "-//W3C//DTD SVG 1.1 Basic//EN" "http://www.w3.org/Graphics/SVG/1.1/DTD/svg11-basic.dtd">
<svg version="1.1" baseProfile="basic" id="Calque_1"
	 xmlns="http://www.w3.org/2000/svg" xmlns:xlink="http://www.w3.org/1999/xlink" x="0px" y="0px" width="320px" height="568px"
	 viewBox="0 0 320 568" xml:space="preserve">
<rect fill="none" width="320" height="568"/>
<g>
	<linearGradient id="SVGID_1_" gradientUnits="userSpaceOnUse" x1="160" y1="367.7363" x2="160" y2="221.167">
		<stop  offset="0" style="stop-color:#0000FF"/>
		<stop  offset="0.95" style="stop-color:#ED1C24"/>
	</linearGradient>
	<polygon fill="url(#SVGID_1_)" points="187.555,221.167 186.593,226.285 133.407,226.285 132.445,221.167 	"/>
	<linearGradient id="SVGID_2_" gradientUnits="userSpaceOnUse" x1="160" y1="367.7363" x2="160" y2="221.167">
		<stop  offset="0" style="stop-color:#0000FF"/>
		<stop  offset="0.95" style="stop-color:#ED1C24"/>
	</linearGradient>
	<polygon fill="url(#SVGID_2_)" points="185.63,231.404 184.668,236.522 135.332,236.522 134.37,231.404 	"/>
	<linearGradient id="SVGID_3_" gradientUnits="userSpaceOnUse" x1="160" y1="367.7363" x2="160" y2="221.167">
		<stop  offset="0" style="stop-color:#0000FF"/>
		<stop  offset="0.95" style="stop-color:#ED1C24"/>
	</linearGradient>
	<polygon fill="url(#SVGID_3_)" points="183.706,241.641 182.743,246.759 137.257,246.759 136.294,241.641 	"/>
	<linearGradient id="SVGID_4_" gradientUnits="userSpaceOnUse" x1="160" y1="367.7363" x2="160" y2="221.167">
		<stop  offset="0" style="stop-color:#0000FF"/>
		<stop  offset="0.95" style="stop-color:#ED1C24"/>
	</linearGradient>
	<polygon fill="url(#SVGID_4_)" points="181.781,251.878 180.819,256.997 139.181,256.997 138.219,251.878 	"/>
	<linearGradient id="SVGID_5_" gradientUnits="userSpaceOnUse" x1="160" y1="367.7363" x2="160" y2="221.167">
		<stop  offset="0" style="stop-color:#0000FF"/>
		<stop  offset="0.95" style="stop-color:#ED1C24"/>
	</linearGradient>
	<polygon fill="url(#SVGID_5_)" points="179.856,262.115 178.895,267.233 141.105,267.233 140.144,262.115 	"/>
	<linearGradient id="SVGID_6_" gradientUnits="userSpaceOnUse" x1="160" y1="367.7363" x2="160" y2="221.167">
		<stop  offset="0" style="stop-color:#0000FF"/>
		<stop  offset="0.95" style="stop-color:#ED1C24"/>
	</linearGradient>
	<polygon fill="url(#SVGID_6_)" points="177.933,272.352 176.97,277.471 143.03,277.471 142.067,272.352 	"/>
	<linearGradient id="SVGID_7_" gradientUnits="userSpaceOnUse" x1="160" y1="367.7363" x2="160" y2="221.167">
		<stop  offset="0" style="stop-color:#0000FF"/>
		<stop  offset="0.95" style="stop-color:#ED1C24"/>
	</linearGradient>
	<polygon fill="url(#SVGID_7_)" points="176.008,282.589 175.045,287.708 144.955,287.708 143.992,282.589 	"/>
	<linearGradient id="SVGID_8_" gradientUnits="userSpaceOnUse" x1="160" y1="367.7363" x2="160" y2="221.167">
		<stop  offset="0" style="stop-color:#0000FF"/>
		<stop  offset="0.95" style="stop-color:#ED1C24"/>
	</linearGradient>
	<polygon fill="url(#SVGID_8_)" points="174.083,292.826 173.12,297.945 146.88,297.945 145.917,292.826 	"/>
	<linearGradient id="SVGID_9_" gradientUnits="userSpaceOnUse" x1="160" y1="367.7363" x2="160" y2="221.167">
		<stop  offset="0" style="stop-color:#0000FF"/>
		<stop  offset="0.95" style="stop-color:#ED1C24"/>
	</linearGradient>
	<polygon fill="url(#SVGID_9_)" points="172.158,303.063 171.196,308.182 148.804,308.182 147.842,303.063 	"/>
	<linearGradient id="SVGID_10_" gradientUnits="userSpaceOnUse" x1="160" y1="367.7363" x2="160" y2="221.167">
		<stop  offset="0" style="stop-color:#0000FF"/>
		<stop  offset="0.95" style="stop-color:#ED1C24"/>
	</linearGradient>
	<polygon fill="url(#SVGID_10_)" points="170.233,313.301 169.271,318.419 150.729,318.419 149.767,313.301 	"/>
	<linearGradient id="SVGID_11_" gradientUnits="userSpaceOnUse" x1="160" y1="367.7363" x2="160" y2="221.167">
		<stop  offset="0" style="stop-color:#0000FF"/>
		<stop  offset="0.95" style="stop-color:#ED1C24"/>
	</linearGradient>
	<polygon fill="url(#SVGID_11_)" points="168.31,323.538 167.347,328.656 152.653,328.656 151.69,323.538 	"/>
	<linearGradient id="SVGID_12_" gradientUnits="userSpaceOnUse" x1="160" y1="367.7363" x2="160" y2="221.167">
		<stop  offset="0" style="stop-color:#0000FF"/>
		<stop  offset="0.95" style="stop-color:#ED1C24"/>
	</linearGradient>
	<polygon fill="url(#SVGID_12_)" points="166.385,333.774 165.423,338.894 154.577,338.894 153.615,333.774 	"/>
	<linearGradient id="SVGID_13_" gradientUnits="userSpaceOnUse" x1="160" y1="367.7363" x2="160" y2="221.167">
		<stop  offset="0" style="stop-color:#0000FF"/>
		<stop  offset="0.95" style="stop-color:#ED1C24"/>
	</linearGradient>
	<polygon fill="url(#SVGID_13_)" points="164.46,344.012 163.498,349.131 156.502,349.131 155.54,344.012 	"/>
	<linearGradient id="SVGID_14_" gradientUnits="userSpaceOnUse" x1="160" y1="367.7363" x2="160" y2="221.167">
		<stop  offset="0" style="stop-color:#0000FF"/>
		<stop  offset="0.95" style="stop-color:#ED1C24"/>
	</linearGradient>
	<polygon fill="url(#SVGID_14_)" points="162.536,354.249 161.573,359.367 158.427,359.367 157.464,354.249 	"/>
	<linearGradient id="SVGID_15_" gradientUnits="userSpaceOnUse" x1="160" y1="367.7363" x2="160" y2="221.167">
		<stop  offset="0" style="stop-color:#0000FF"/>
		<stop  offset="0.95" style="stop-color:#ED1C24"/>
	</linearGradient>
	<polygon fill="url(#SVGID_15_)" points="160.611,364.486 160,367.736 159.389,364.486 	"/>
</g>
<line fill="none" stroke="#666666" stroke-width="3" stroke-miterlimit="10" stroke-dasharray="3,6" x1="160" y1="364.5" x2="160" y2="413.939"/>
</svg>
