<svg version="1.1" baseProfile="basic" id="Calque_1"
	 xmlns="http://www.w3.org/2000/svg" xmlns:xlink="http://www.w3.org/1999/xlink" x="0px" y="0px" width="320px" height="568px"
	 viewBox="0 0 320 568" xml:space="preserve">`

<rect fill="none" width="320" height="568"/>
<path fill="none" stroke="#666666" stroke-miterlimit="10" d="M155.268,60.444c-1.745-1.097-3.809-1.731-6.022-1.731
	c-6.258,0-11.332,5.075-11.332,11.333c0,6.259,5.074,11.333,11.332,11.333c2.081,0,4.03-0.561,5.706-1.539"/>
<circle fill="none" stroke="#666666" stroke-miterlimit="10" cx="165.592" cy="70.046" r="11.333"/>
<line fill="none" stroke="#666666" stroke-miterlimit="10" x1="131.639" y1="62.304" x2="131.639" y2="81.38"/>
<path fill="none" stroke="#666666" stroke-miterlimit="10" d="M108.01,60.444c1.745-1.097,3.81-1.731,6.023-1.731
	c6.258,0,11.333,5.075,11.333,11.333c0,6.259-5.075,11.333-11.333,11.333c-2.082,0-4.03-0.561-5.707-1.539"/>
<line fill="none" stroke="#666666" stroke-miterlimit="10" x1="107.889" y1="79.065" x2="107.889" y2="91.473"/>
<circle fill="#666666" cx="131.639" cy="57.157" r="1.245"/>
<line fill="none" stroke="#666666" stroke-miterlimit="10" x1="183.197" y1="51.829" x2="183.197" y2="81.38"/>
<circle fill="none" stroke="#666666" stroke-miterlimit="10" cx="200.775" cy="70.046" r="11.334"/>

<g>
	<path fill-rule="evenodd" clip-rule="evenodd" fill="#13356C" d="M162.237,38.644c-0.055,0.672,0.29,1.417,1.1,1.683
		c0.477,0.155,0.953,0.107,1.43,0.009c0.482-0.099,0.922-0.289,1.319-0.58c0.016-0.009,0.031-0.017,0.049-0.026
		c0.013,0.021,0.027,0.04,0.037,0.059c0.253,0.44,0.507,0.881,0.764,1.333c-0.074,0.051-0.142,0.101-0.214,0.148
		c-0.67,0.434-1.411,0.668-2.199,0.77c-0.455,0.06-0.911,0.081-1.371,0.061c-1.421-0.061-2.49-0.886-2.911-2.243
		c-0.208-0.669-0.263-1.354-0.226-2.049c0.024-0.53,0.101-1.051,0.281-1.553c0.427-1.196,1.28-1.896,2.522-2.111
		c0.715-0.125,1.43-0.084,2.12,0.144c0.886,0.29,1.445,0.912,1.744,1.781c0.217,0.627,0.271,1.278,0.278,1.935
		c0,0.189,0,0.378,0,0.582C165.384,38.605,163.813,38.624,162.237,38.644z M164.779,37.289c-0.013-0.189-0.013-0.36-0.034-0.531
		c-0.031-0.268-0.11-0.52-0.294-0.728c-0.228-0.255-0.528-0.337-0.852-0.345c-0.445-0.011-0.825,0.125-1.081,0.512
		c-0.134,0.2-0.208,0.423-0.251,0.656c-0.021,0.139-0.03,0.28-0.052,0.436C163.08,37.289,163.92,37.289,164.779,37.289z"/>
	<path fill-rule="evenodd" clip-rule="evenodd" fill="#13356C" d="M168.102,41.983c0-2.584,0-5.154,0-7.739c0.033,0,0.067,0,0.098,0
		c1.062,0,2.119-0.003,3.183,0.001c0.642,0.001,1.265,0.113,1.839,0.417c0.8,0.425,1.304,1.092,1.563,1.952
		c0.202,0.666,0.232,1.347,0.165,2.034c-0.045,0.49-0.159,0.963-0.367,1.409c-0.405,0.857-1.087,1.393-1.976,1.683
		c-0.516,0.168-1.048,0.241-1.588,0.241c-0.935,0.001-1.869,0.001-2.804,0.001C168.181,41.983,168.15,41.983,168.102,41.983z
		 M170.139,40.502c0.01,0.004,0.016,0.009,0.021,0.009c0.421,0.003,0.843,0.029,1.262-0.049c0.632-0.117,1.078-0.469,1.279-1.082
		c0.26-0.782,0.277-1.579,0.062-2.374c-0.116-0.427-0.36-0.777-0.739-1.021c-0.263-0.171-0.556-0.272-0.867-0.296
		c-0.337-0.027-0.672-0.033-1.018-0.048C170.139,37.28,170.139,38.891,170.139,40.502z"/>
	<path fill-rule="evenodd" clip-rule="evenodd" fill="#F0471C" d="M139.85,34.03c0.096,0.006,0.172,0.008,0.247,0.015
		c0.08,0.008,0.104-0.027,0.107-0.102c0.011-0.243,0.018-0.486,0.041-0.728c0.019-0.192,0.093-0.363,0.278-0.491
		c0.047,0.087,0.102,0.163,0.135,0.247c0.293,0.782,0.72,1.481,1.296,2.084c0.232,0.243,0.5,0.447,0.843,0.524
		c0.108,0.024,0.206,0.09,0.314,0.116c0.273,0.068,0.548,0.029,0.822-0.008c0.368-0.05,0.733-0.124,1.107-0.111
		c0.428,0.017,0.713,0.278,0.762,0.707c0.006,0.052,0.011,0.108,0.032,0.154c0.128,0.281,0.064,0.539-0.082,0.788
		c-0.179,0.307-0.436,0.542-0.709,0.762c-0.061,0.05-0.128,0.095-0.19,0.144c-0.264,0.201-0.556,0.33-0.888,0.379
		c-0.322,0.049-0.638,0.13-0.96,0.172c-0.45,0.062-0.901,0.023-1.345-0.079c-1.003-0.228-1.891-0.676-2.631-1.397
		c-0.319-0.308-0.577-0.66-0.688-1.103c-0.036-0.146-0.029-0.272,0.057-0.412c0.118-0.194,0.19-0.416,0.284-0.625
		c0.127-0.282,0.324-0.476,0.645-0.512c0.031-0.003,0.076,0.019,0.093,0.045c0.077,0.108,0.166,0.104,0.245-0.002
		C139.792,34.43,139.848,34.242,139.85,34.03z"/>
	<path fill-rule="evenodd" clip-rule="evenodd" fill="#13356C" d="M175.982,34.244c0.039,0,0.072,0,0.104,0
		c1.561,0,3.121,0.001,4.68-0.003c0.091,0,0.115,0.026,0.115,0.116c-0.003,0.42,0,0.838,0,1.257c0,0.133,0,0.131-0.135,0.13
		c-0.861-0.009-1.729-0.019-2.59-0.027c-0.138-0.002-0.138,0-0.138,0.133c0,0.438,0,0.877,0,1.316c0,0.032,0.003,0.064,0.006,0.111
		c0.85,0,1.69,0,2.539,0c0,0.475,0,0.945,0,1.416c-0.846,0-1.687,0-2.529,0c0,1.095,0,2.186,0,3.285c-0.675,0-1.356,0-2.052,0
		C175.982,39.401,175.982,36.828,175.982,34.244z"/>
	<path fill-rule="evenodd" clip-rule="evenodd" fill="#F0471C" d="M147.615,34.375c-0.207-0.029-0.387-0.05-0.567-0.083
		c-0.114-0.02-0.212-0.07-0.271-0.181c-0.081-0.156-0.216-0.263-0.346-0.376c-0.38-0.33-0.704-0.708-0.968-1.141
		c-0.13-0.211-0.281-0.411-0.417-0.619c-0.024-0.037-0.035-0.09-0.032-0.136c0.004-0.08,0.03-0.157,0.032-0.235
		c0.002-0.067-0.007-0.139-0.033-0.198c-0.108-0.248-0.119-0.501-0.07-0.761c0.076-0.409,0.239-0.784,0.488-1.112
		c0.281-0.371,0.583-0.726,0.943-1.023c0.229-0.189,0.488-0.325,0.779-0.385c0.081-0.015,0.17-0.004,0.252,0.009
		c0.085,0.014,0.169,0.038,0.249,0.07c0.194,0.076,0.386,0.073,0.584,0.019c0.486-0.134,0.972-0.269,1.46-0.396
		c0.19-0.049,0.382-0.078,0.575-0.112c0.038-0.006,0.079,0,0.119,0.008c0.108,0.02,0.189,0.096,0.197,0.185
		c0.008,0.101-0.069,0.147-0.142,0.185c-0.08,0.04-0.169,0.059-0.249,0.101c-0.145,0.077-0.319,0.136-0.417,0.254
		c-0.162,0.197-0.301,0.425-0.394,0.66c-0.083,0.212-0.1,0.452-0.128,0.681c-0.026,0.203-0.032,0.41-0.037,0.616
		c-0.001,0.04,0.027,0.093,0.06,0.121c0.166,0.137,0.312,0.292,0.386,0.498c0.017,0.048,0.006,0.113-0.008,0.166
		c-0.073,0.275-0.157,0.547-0.225,0.823c-0.114,0.46-0.209,0.925-0.331,1.382c-0.063,0.235-0.18,0.453-0.353,0.629
		c-0.152,0.159-0.334,0.261-0.563,0.25c-0.033-0.001-0.067,0.003-0.099,0.009C147.925,34.315,147.762,34.348,147.615,34.375z"/>
	<path fill-rule="evenodd" clip-rule="evenodd" fill="#F0471C" d="M140.664,42.161c0.144,0.085,0.269,0.174,0.405,0.238
		c0.467,0.222,0.962,0.258,1.471,0.209c0.617-0.06,1.191-0.25,1.73-0.557c0.42-0.238,0.747-0.572,1.017-0.966
		c0.108-0.159,0.22-0.316,0.321-0.481c0.087-0.143,0.198-0.251,0.355-0.319c0.125-0.052,0.241-0.125,0.365-0.177
		c0.063-0.027,0.134-0.031,0.203-0.039c0.44-0.047,0.618,0.096,0.77,0.547c0.199,0.591,0.237,1.204,0.217,1.82
		c-0.015,0.432-0.066,0.861-0.253,1.26c-0.145,0.305-0.356,0.568-0.576,0.823c-0.096,0.113-0.203,0.217-0.306,0.325
		c-0.133,0.141-0.296,0.225-0.481,0.267c-0.233,0.052-0.417,0.2-0.617,0.316c-0.283,0.165-0.582,0.281-0.911,0.235
		c-0.27-0.037-0.534,0.004-0.803,0.003c-0.082,0-0.166-0.028-0.249-0.046c-0.023-0.006-0.044-0.017-0.064-0.03
		c-0.253-0.168-0.534-0.145-0.817-0.11c-0.134,0.017-0.146,0.019-0.178-0.119c-0.025-0.11-0.081-0.145-0.188-0.131
		c-0.088,0.011-0.178,0.011-0.269,0.021c-0.068,0.006-0.116-0.02-0.145-0.079c-0.046-0.093-0.095-0.184-0.134-0.278
		c-0.052-0.123-0.135-0.209-0.254-0.269c-0.171-0.087-0.193-0.18-0.192-0.371c0.003-0.209-0.02-0.424-0.066-0.629
		c-0.103-0.462-0.224-0.921-0.339-1.382C140.67,42.219,140.668,42.192,140.664,42.161z"/>
	<path fill-rule="evenodd" clip-rule="evenodd" fill="#F0471C" d="M156.453,38.188c-0.185-0.031-0.345-0.046-0.498-0.088
		c-0.156-0.044-0.305-0.048-0.457,0.009c-0.069,0.024-0.096,0.006-0.108-0.063c-0.04-0.226-0.116-0.434-0.275-0.607
		c-0.226-0.249-0.51-0.4-0.818-0.513c-0.472-0.173-0.963-0.252-1.461-0.278c-0.428-0.02-0.857-0.033-1.285-0.03
		c-0.335,0.001-0.67,0.03-1.004,0.052c-0.09,0.006-0.153-0.027-0.207-0.095c-0.215-0.281-0.281-0.597-0.183-0.932
		c0.067-0.229,0.253-0.386,0.44-0.527c0.635-0.478,1.359-0.759,2.128-0.933c0.73-0.165,1.469-0.23,2.216-0.197
		c0.808,0.037,1.588,0.194,2.285,0.637c0.67,0.426,1.072,1.035,1.209,1.817c0.004,0.026,0.011,0.052,0.015,0.078
		c0.024,0.131,0.038,0.255-0.052,0.378c-0.055,0.076-0.081,0.182-0.095,0.28c-0.04,0.29-0.165,0.363-0.423,0.426
		c-0.141,0.034-0.285,0.055-0.425,0.089c-0.022,0.004-0.052,0.048-0.052,0.074c-0.001,0.166-0.029,0.223-0.186,0.261
		C156.958,38.091,156.694,38.138,156.453,38.188z"/>
	<path fill-rule="evenodd" clip-rule="evenodd" fill="#F0471C" d="M156.521,44.417c-0.026,0.084-0.05,0.167-0.079,0.249
		c-0.024,0.072-0.057,0.142-0.081,0.214c-0.061,0.177-0.151,0.316-0.366,0.32c-0.23,0.003-0.416,0.13-0.604,0.24
		c-0.118,0.068-0.228,0.151-0.347,0.217c-0.292,0.162-0.609,0.167-0.93,0.128c-0.023-0.002-0.045-0.023-0.064-0.042
		c-0.467-0.462-0.991-0.854-1.562-1.18c-0.113-0.065-0.252-0.087-0.377-0.135c-0.172-0.062-0.351-0.119-0.397-0.331
		c-0.008-0.031-0.006-0.078,0.014-0.098c0.096-0.1,0.134-0.223,0.144-0.353c0.014-0.18,0.044-0.358-0.018-0.542
		c-0.033-0.102-0.014-0.224-0.015-0.336c0-0.099-0.023-0.182-0.094-0.263c-0.06-0.066-0.086-0.162-0.124-0.248
		c-0.036-0.078-0.064-0.159-0.097-0.24c-0.042-0.108-0.104-0.201-0.198-0.279c-0.085-0.072-0.162-0.16-0.219-0.257
		c-0.183-0.317-0.469-0.518-0.771-0.702c-0.212-0.131-0.413-0.279-0.551-0.495c-0.056-0.087-0.077-0.169-0.001-0.252
		c0.089-0.096,0.174-0.2,0.276-0.281c0.116-0.092,0.25-0.16,0.379-0.238c0.018-0.011,0.041-0.017,0.062-0.017
		c0.744,0.042,1.451,0.235,2.132,0.53c0.956,0.412,1.81,0.977,2.539,1.724c0.507,0.519,0.919,1.101,1.161,1.793
		C156.43,43.825,156.488,44.114,156.521,44.417z"/>
</g>
</svg>
