<svg version="1.1" baseProfile="basic" id="Calque_1"
	 xmlns="http://www.w3.org/2000/svg" xmlns:xlink="http://www.w3.org/1999/xlink" x="0px" y="0px" width="320px" height="568px"
	 viewBox="0 0 320 568" xml:space="preserve">
<rect fill="none" width="320" height="568"/>
<path fill="#666666" stroke="#666666" stroke-width="0.5" stroke-miterlimit="10" d="M83.76,390.957
	c-0.098-0.152-0.301-0.197-0.454-0.1l-2.707,1.752l-5.222-2.768l4.961-2.986l2.693,1.734c0.055,0.033,0.116,0.049,0.176,0.049
	c0.11,0,0.215-0.051,0.277-0.148c0.099-0.154,0.055-0.355-0.099-0.453l-2.422-1.557l2.337-1.408
	c0.154-0.094,0.206-0.295,0.112-0.449c-0.095-0.156-0.296-0.203-0.45-0.113l-2.291,1.379v-2.824c0-0.182-0.146-0.33-0.329-0.33
	c-0.18,0-0.327,0.148-0.327,0.33v3.221l-4.977,2.994v-5.916l2.816-1.502c0.162-0.086,0.221-0.285,0.135-0.443
	c-0.085-0.162-0.283-0.223-0.443-0.137l-2.508,1.34v-2.59c0-0.18-0.146-0.326-0.326-0.326c-0.183,0-0.329,0.146-0.329,0.326v2.596
	l-2.502-1.396c-0.158-0.09-0.357-0.035-0.447,0.123c-0.088,0.158-0.03,0.359,0.127,0.447l2.822,1.578v5.936l-5.249-2.779v-3.215
	c0-0.182-0.146-0.328-0.328-0.328c-0.181,0-0.328,0.146-0.328,0.328v2.869l-2.298-1.217c-0.162-0.086-0.36-0.025-0.444,0.135
	s-0.024,0.357,0.135,0.443l2.281,1.207l-2.388,1.533c-0.152,0.098-0.196,0.303-0.099,0.455c0.062,0.098,0.168,0.15,0.275,0.15
	c0.061,0,0.123-0.016,0.177-0.053l2.698-1.732l5.229,2.768l-5.057,3.043l-2.759-1.664c-0.152-0.092-0.355-0.043-0.45,0.113
	c-0.092,0.154-0.044,0.355,0.111,0.447l2.462,1.484l-2.231,1.346c-0.154,0.094-0.206,0.295-0.112,0.451
	c0.062,0.1,0.171,0.158,0.282,0.158c0.058,0,0.115-0.016,0.168-0.049l2.207-1.326l0.081,2.83c0.005,0.18,0.152,0.318,0.328,0.318
	h0.009c0.183-0.004,0.324-0.156,0.319-0.336l-0.091-3.201l5.07-3.051v5.908l-2.83,1.504c-0.159,0.086-0.221,0.283-0.136,0.443
	c0.059,0.111,0.174,0.174,0.291,0.174c0.051,0,0.104-0.014,0.153-0.037l2.521-1.342v2.596c0,0.18,0.146,0.328,0.329,0.328
	c0.181,0,0.328-0.148,0.328-0.328v-2.586l2.486,1.393c0.05,0.029,0.107,0.043,0.159,0.043c0.116,0,0.228-0.061,0.287-0.168
	c0.089-0.156,0.032-0.357-0.126-0.447l-2.807-1.572v-5.947l5.255,2.783l0.007,3.201c0,0.182,0.147,0.328,0.328,0.328l0,0
	c0.183,0,0.328-0.148,0.328-0.328l-0.006-2.852l2.291,1.213c0.051,0.025,0.102,0.039,0.155,0.039c0.116,0,0.229-0.064,0.288-0.176
	c0.086-0.158,0.026-0.357-0.135-0.441l-2.288-1.211l2.399-1.551C83.814,391.312,83.858,391.109,83.76,390.957z"/>
<path fill-rule="evenodd" clip-rule="evenodd" fill="none" stroke="#4A09BB" stroke-miterlimit="10" d="M82.424,321.471
	c-1.078,3.057-4.192,5.426-7.912,5.215c-3.983-0.229-7.096-3.316-7.471-7.148c-0.392-4.004,2.149-7.199,5.188-8.264
	c-0.926,3.119-0.415,5.949,1.907,8.275C76.461,321.881,79.29,322.393,82.424,321.471z"/>
<path fill-rule="evenodd" clip-rule="evenodd" fill="#BA1553" d="M74.853,239.688c0.273,0.096,0.478,0.257,0.54,0.556
	c0.01,0.057,0.015,0.115,0.015,0.174c0.002,0.451,0.002,0.904,0,1.357c-0.001,0.427-0.295,0.733-0.701,0.733
	c-0.406-0.001-0.7-0.306-0.7-0.734c-0.003-0.409,0.014-0.819-0.004-1.227c-0.02-0.429,0.145-0.719,0.558-0.859
	C74.659,239.688,74.756,239.688,74.853,239.688z"/>
<path fill="#B81755" d="M74.708,244.869c1.949,0,3.534,1.586,3.534,3.537c0,1.948-1.586,3.533-3.539,3.533
	c-1.946,0-3.531-1.584-3.532-3.532c0-0.945,0.367-1.833,1.035-2.502c0.667-0.668,1.556-1.036,2.5-1.036H74.708 M74.708,243.869
	c-0.001,0-0.001,0-0.002,0c-2.506,0-4.536,2.032-4.535,4.539c0.002,2.506,2.024,4.531,4.532,4.531c0.001,0,0.003,0,0.004,0
	c2.508,0,4.535-2.026,4.535-4.533C79.242,245.899,77.209,243.869,74.708,243.869L74.708,243.869z"/>
<path fill-rule="evenodd" clip-rule="evenodd" fill="#BA1553" d="M78.682,252.996c0.005-0.216,0.142-0.439,0.417-0.56
	c0.268-0.12,0.531-0.089,0.744,0.114c0.363,0.347,0.718,0.702,1.063,1.064c0.262,0.274,0.24,0.695-0.029,0.961
	c-0.266,0.267-0.688,0.283-0.961,0.021c-0.356-0.344-0.706-0.697-1.052-1.053C78.739,253.418,78.68,253.261,78.682,252.996z"/>
<path fill-rule="evenodd" clip-rule="evenodd" fill="#BA1553" d="M68.841,254.902c-0.291-0.015-0.511-0.149-0.632-0.416
	c-0.119-0.263-0.096-0.525,0.104-0.736c0.353-0.373,0.715-0.74,1.093-1.093c0.273-0.253,0.691-0.217,0.949,0.052
	c0.258,0.271,0.275,0.684,0.018,0.951c-0.348,0.362-0.705,0.713-1.063,1.063C69.181,254.847,69.021,254.903,68.841,254.902z"/>
<path fill-rule="evenodd" clip-rule="evenodd" fill="#BA1553" d="M68.261,242.747c0.017-0.384,0.152-0.604,0.419-0.726
	c0.263-0.117,0.524-0.094,0.736,0.105c0.373,0.352,0.74,0.717,1.093,1.094c0.252,0.27,0.214,0.69-0.052,0.949
	c-0.264,0.254-0.675,0.277-0.939,0.024c-0.371-0.351-0.734-0.71-1.081-1.086C68.333,242.996,68.296,242.821,68.261,242.747z"/>
<path fill-rule="evenodd" clip-rule="evenodd" fill="#BA1553" d="M79.214,244.486c-0.249-0.012-0.469-0.146-0.592-0.413
	c-0.117-0.262-0.097-0.526,0.101-0.735c0.354-0.375,0.72-0.741,1.097-1.093c0.27-0.251,0.691-0.217,0.947,0.049
	c0.26,0.267,0.276,0.683,0.021,0.95c-0.345,0.362-0.705,0.713-1.063,1.063C79.597,244.433,79.437,244.488,79.214,244.486z"/>
<path fill-rule="evenodd" clip-rule="evenodd" fill="#BA1553" d="M82.073,248.991c-0.237,0-0.477,0.002-0.715-0.002
	c-0.398-0.005-0.695-0.302-0.699-0.691c-0.003-0.39,0.293-0.702,0.685-0.708c0.481-0.009,0.966-0.006,1.446,0
	c0.399,0.006,0.696,0.322,0.691,0.717c-0.006,0.387-0.308,0.68-0.709,0.685C82.541,248.994,82.306,248.991,82.073,248.991
	L82.073,248.991z"/>
<path fill-rule="evenodd" clip-rule="evenodd" fill="#BA1553" d="M74.006,255.829c0-0.239-0.004-0.479,0-0.716
	c0.007-0.396,0.304-0.693,0.694-0.696c0.395-0.003,0.703,0.299,0.707,0.699c0.003,0.473,0.002,0.944-0.001,1.416
	c-0.004,0.401-0.31,0.704-0.703,0.704c-0.393,0-0.694-0.307-0.697-0.707C74.002,256.296,74.006,256.062,74.006,255.829z"/>
<path fill-rule="evenodd" clip-rule="evenodd" fill="#BA1553" d="M67.341,248.991c-0.238,0-0.478,0.002-0.717-0.002
	c-0.387-0.005-0.687-0.302-0.691-0.682c-0.006-0.389,0.284-0.71,0.674-0.718c0.491-0.009,0.983-0.01,1.474,0.003
	c0.394,0.008,0.683,0.328,0.67,0.718c-0.011,0.387-0.303,0.676-0.693,0.681C67.817,248.994,67.579,248.991,67.341,248.991
	L67.341,248.991z"/>
</svg>
