<svg version="1.1" baseProfile="basic" id="Calque_1"
	 xmlns="http://www.w3.org/2000/svg" xmlns:xlink="http://www.w3.org/1999/xlink" x="0px" y="0px" width="320px" height="568px"
	 viewBox="0 0 320 568" xml:space="preserve">
	 
<g id="connect">
	<path fill="none" stroke="#666666" stroke-miterlimit="10" d="M278.349,544.472h-5.271v-10.621c0-3.706,3.003-6.709,6.709-6.709
		h8.388c3.705,0,6.709,3.003,6.709,6.709v10.621h-5.345"/>
	<path fill="none" stroke="#666666" stroke-miterlimit="10" d="M291.607,539.328c0,4.214-3.414,7.627-7.628,7.627
		c-4.211,0-7.625-3.413-7.625-7.627H291.607z"/>
	<path fill="none" stroke="#666666" stroke-miterlimit="10" d="M272.495,526.649c3.037-2.752,7.065-4.428,11.486-4.428
		c4.396,0,8.405,1.659,11.437,4.384"/>
	<path fill="none" stroke="#666666" stroke-miterlimit="10" d="M269.859,524.015c3.713-3.424,8.673-5.517,14.122-5.517
		c5.424,0,10.365,2.073,14.071,5.473"/>
	<path fill="none" stroke="#666666" stroke-miterlimit="10" d="M266.988,521.143c4.447-4.159,10.423-6.704,16.993-6.704
		c6.545,0,12.503,2.528,16.945,6.66"/>
</g>

<g id="modes">
	<g>
		<path fill="#666666" d="M38.604,523.198v2.484c0,0.446,0.307,0.839,0.698,0.95c0.586,0.14,1.144,0.39,1.675,0.695
			c0.139,0.112,0.308,0.143,0.502,0.143c0.251,0,0.503-0.113,0.698-0.309l1.675-1.729l2.345,2.371l-1.73,1.731
			c-0.308,0.307-0.393,0.779-0.14,1.199c0.306,0.531,0.53,1.089,0.697,1.677c0.112,0.445,0.504,0.696,0.95,0.696h2.43v3.352h-2.43
			c-0.446,0-0.838,0.305-0.95,0.697c-0.141,0.585-0.392,1.199-0.697,1.674c-0.195,0.391-0.141,0.836,0.14,1.2l1.73,1.731
			l-2.317,2.371l-1.675-1.729c-0.195-0.195-0.447-0.309-0.697-0.309c-0.142,0-0.335,0.058-0.504,0.142
			c-0.528,0.306-1.088,0.529-1.675,0.696c-0.391,0.141-0.698,0.505-0.698,0.95v2.483h-3.264v-2.483c0-0.445-0.308-0.838-0.698-0.95
			c-0.588-0.14-1.146-0.391-1.676-0.696c-0.139-0.111-0.307-0.142-0.503-0.142c-0.251,0-0.501,0.113-0.697,0.309l-1.675,1.729
			l-2.346-2.371l1.732-1.731c0.306-0.307,0.389-0.779,0.138-1.2c-0.308-0.53-0.53-1.089-0.697-1.674
			c-0.111-0.447-0.503-0.697-0.949-0.697h-2.372v-3.352h2.428c0.447,0,0.837-0.307,0.949-0.696c0.14-0.588,0.392-1.201,0.698-1.677
			c0.194-0.391,0.14-0.835-0.14-1.199l-1.787-1.731l2.316-2.371l1.677,1.729c0.193,0.195,0.445,0.309,0.697,0.309
			c0.14,0,0.334-0.057,0.501-0.143c0.531-0.306,1.09-0.528,1.676-0.695c0.39-0.141,0.698-0.504,0.698-0.95v-2.484H38.604
			 M39.607,522.222h-5.248v3.461c-0.642,0.195-1.284,0.446-1.87,0.783l-2.372-2.429l-3.713,3.768l2.371,2.428
			c-0.334,0.588-0.585,1.229-0.78,1.872h-3.35v5.332h3.405c0.196,0.642,0.447,1.282,0.782,1.87l-2.373,2.456l3.713,3.769l2.374-2.43
			c0.585,0.338,1.227,0.588,1.87,0.783v3.461h5.248v-3.461c0.642-0.195,1.282-0.445,1.869-0.783l2.373,2.43l3.713-3.769l-2.374-2.43
			c0.336-0.585,0.587-1.227,0.782-1.869h3.321v-5.359h-3.404c-0.197-0.643-0.447-1.284-0.782-1.872l2.374-2.428l-3.742-3.742
			l-2.372,2.43c-0.585-0.335-1.229-0.585-1.87-0.78v-3.49H39.607z"/>
	</g>
	<g>
		<path fill="#666666" d="M36.984,532.467c1.281,0,2.261,1.032,2.261,2.315c0,1.286-1.034,2.319-2.261,2.319
			c-1.229,0-2.262-1.033-2.262-2.319C34.723,533.499,35.7,532.467,36.984,532.467 M36.984,531.462c-1.842,0-3.267,1.479-3.267,3.32
			c0,1.845,1.479,3.324,3.267,3.324c1.786,0,3.265-1.479,3.265-3.324C40.249,532.94,38.825,531.462,36.984,531.462L36.984,531.462z"
			/>
	</g>
</g>
</svg>
